<svg width="350" height="350" viewBox="0 0 350 350" fill="none" xmlns="http://www.w3.org/2000/svg">
<path d="M288.405 88.8041C281.463 89.3315 274.99 91.537 268.93 95.4397C267.626 96.2835 265.315 97.9808 264.088 99.0068C260.856 101.692 257.356 105.412 254.479 109.219L253.492 110.514L241.889 115.203C235.512 117.792 230.305 119.911 230.325 119.93C230.353 119.968 233.815 119.067 237.095 118.185C241.199 117.073 246.262 115.682 249.416 114.819C256.742 112.796 257.174 112.662 257.327 112.451C259.945 108.749 263.915 104.588 267.3 101.97C273.025 97.5493 279.286 95.0082 286.67 94.0972C288.818 93.8287 294.073 93.8575 296.336 94.1452C302.386 94.9219 307.89 96.552 313.471 99.237C314.967 99.9561 316.444 100.762 316.377 100.829C316.358 100.848 315.744 100.762 315.005 100.637C312.378 100.186 310.719 100.081 307.047 100.138C303.623 100.196 302.319 100.292 299.021 100.733C291.685 101.701 283.208 103.782 273.964 106.87C271.558 107.675 267.444 109.162 266.821 109.449L266.485 109.612L266.916 109.555C275.729 108.49 292.922 108.212 313.759 108.788C316.559 108.864 319.11 108.931 319.445 108.931C319.771 108.931 320.04 108.97 320.04 109.008C320.04 109.056 319.771 109.142 319.436 109.2C317.873 109.488 315.312 110.59 313.711 111.664C310.134 114.071 306.874 117.782 303.882 122.884C302.799 124.734 301.168 127.985 300.258 130.123C299.538 131.801 298.273 135.186 298.273 135.416C298.273 135.886 296.508 141.611 295.425 144.651C292.366 153.242 288.636 160.952 284.004 168.24C278.49 176.899 271.586 184.848 264.548 190.601C261.863 192.807 258.833 194.945 258.411 194.945C258.286 194.945 248.4 195.415 236.442 196C224.485 196.575 214.359 197.055 213.927 197.074L213.151 197.103L207.062 191.426C203.705 188.3 200.742 185.519 200.464 185.241C200.186 184.963 197.568 181.875 194.644 178.385C191.719 174.894 189.188 171.922 189.025 171.788C188.852 171.653 188.603 171.452 188.449 171.337C188.258 171.184 184.029 169.927 173.442 166.888C155.54 161.748 156.748 162.112 147.562 159.159C140.753 156.973 139.027 156.368 140.61 156.742C141.779 157.021 145.941 157.845 147.581 158.114C158.752 159.974 174.133 161.633 194.807 163.205C202.133 163.762 217.025 164.721 223.047 165.027C224.101 165.085 226.048 165.19 227.362 165.267C228.685 165.344 231.121 165.478 232.779 165.555C234.438 165.631 236.644 165.737 237.67 165.794C248.266 166.312 263.215 166.945 265.104 166.945H266.005L266.926 166.005C268.422 164.481 269.275 163.551 271.04 161.527C278.625 152.859 283.227 145.523 283.879 141.045C284.042 139.904 284.052 139.607 283.966 138.83C283.774 137.075 283.045 135.973 281.453 135.042C275.844 131.753 259.236 128.33 231.389 124.715C229.97 124.533 228.388 124.331 227.889 124.274C227.39 124.216 225.732 124.015 224.207 123.833L221.426 123.507L213.688 126.623C207.263 129.212 205.825 129.759 205.24 129.836C204.856 129.884 204.242 130.056 203.868 130.2C203.255 130.459 199.486 132.012 197.636 132.76C196.677 133.153 193.368 134.515 192.026 135.062C191.47 135.292 190.156 135.829 189.101 136.26C188.047 136.692 186.733 137.229 186.177 137.459C185.621 137.689 184.307 138.226 183.252 138.658C182.197 139.089 180.884 139.626 180.327 139.856C179.771 140.086 178.458 140.623 177.403 141.055C176.348 141.486 175.14 141.985 174.718 142.158C173.701 142.579 171.745 143.375 169.684 144.219C168.763 144.603 167.66 145.053 167.238 145.226C166.816 145.399 165.781 145.821 164.937 146.166C164.093 146.511 162.866 147.019 162.204 147.288C161.542 147.556 160.21 148.112 159.232 148.505C157.093 149.378 156.719 149.531 155.3 150.116C154.696 150.366 152.922 151.085 151.368 151.718C149.815 152.351 148.329 152.974 148.07 153.099C147.811 153.233 145.931 154.01 143.899 154.825C141.866 155.649 140.082 156.378 139.938 156.445C139.795 156.512 139.478 156.618 139.219 156.675C138.816 156.781 99.5685 159.101 24.9849 163.445C12.7205 164.164 2.53699 164.778 2.34521 164.816L2 164.884L13.6795 176.218L25.3589 187.542L25.7233 187.504C25.9247 187.475 52.0068 184.829 83.6795 181.626L141.281 175.786L164.563 180.514C177.374 183.122 187.97 185.289 188.104 185.337C188.449 185.462 207.944 201.351 208.049 201.6C208.097 201.705 209.104 205.503 210.284 210.029C211.463 214.555 212.46 218.294 212.508 218.333C212.556 218.381 221.896 220.692 233.259 223.473C244.622 226.253 253.981 228.564 254.058 228.603C254.163 228.66 254.153 228.699 254.01 228.775C253.914 228.823 250.481 230.3 246.396 232.055C242.311 233.81 238.945 235.258 238.926 235.286C238.888 235.315 239.396 242.977 239.559 244.827L239.616 245.47L242.148 241.855C243.538 239.87 244.747 238.211 244.842 238.163C244.929 238.125 249.234 237.127 254.403 235.938L263.8 233.781L273.341 237.818L282.892 241.864L288.3 251.962C291.273 257.514 293.727 262.049 293.747 262.03C293.775 262.001 287.341 234.644 287.293 234.567C287.284 234.557 282.268 232.764 276.16 230.597C266.341 227.116 262.812 225.937 245.868 220.385C235.321 216.923 226.623 214.066 226.547 214.027C226.412 213.951 226.431 213.433 226.758 209.223C226.959 206.625 227.141 204.477 227.17 204.457C227.199 204.429 234.63 204.084 243.682 203.681L260.156 202.952L260.827 202.578C267.942 198.627 275.882 191.762 282.441 183.87C288.837 176.179 294.111 167.588 298.512 157.644C301.523 150.864 304.323 142.522 306.136 134.918C306.577 133.067 307.44 131.293 309.166 128.685C312.436 123.756 316.933 119.604 322.437 116.44C329.303 112.489 337.885 110.188 347.052 109.823C347.915 109.794 348.615 109.737 348.615 109.699C348.615 109.555 341.404 106.611 337.348 105.096C334.721 104.118 330.348 102.66 328.382 102.114C326.944 101.721 326.867 101.682 326.033 101.068C317.499 94.7685 307.305 90.4246 298.033 89.1301C295.166 88.7274 291.158 88.5931 288.405 88.8041ZM159.327 172.89C159.327 172.938 159.26 172.958 159.184 172.929C159.107 172.89 159.04 172.852 159.04 172.833C159.04 172.814 159.107 172.794 159.184 172.794C159.26 172.794 159.327 172.833 159.327 172.89ZM176.396 173.178C176.971 173.514 176.952 173.514 175.993 173.178C175.629 173.053 175.341 172.91 175.341 172.862C175.341 172.708 175.84 172.862 176.396 173.178Z" fill="#FF3B30"/>
</svg>
